<?xml version="1.0" standalone="no"?><!DOCTYPE svg PUBLIC "-//W3C//DTD SVG 1.1//EN" "http://www.w3.org/Graphics/SVG/1.1/DTD/svg11.dtd"><svg t="1722324187707" class="icon" viewBox="0 0 1024 1024" version="1.1" xmlns="http://www.w3.org/2000/svg" p-id="1493" xmlns:xlink="http://www.w3.org/1999/xlink" width="200" height="200"><path d="M399.786667 143.786667L146.346667 397.226667c-13.226667 13.226667-34.986667 13.226667-48.213334 0-13.226667-13.226667-13.226667-34.986667 0-48.213334l253.44-253.44c13.226667-13.226667 34.986667-13.226667 48.213334 0 13.226667 13.226667 13.226667 34.56 0 48.213334z" fill="#4C4C4C" p-id="1494"></path><path d="M375.466667 938.666667c-18.773333 0-34.133333-15.36-34.133334-34.133334V119.466667c0-18.773333 15.36-34.133333 34.133334-34.133334s34.133333 15.36 34.133333 34.133334v785.066666c0 18.773333-15.36 34.133333-34.133333 34.133334zM624.213333 880.213333l253.44-253.44c13.226667-13.226667 34.986667-13.226667 48.213334 0 13.226667 13.226667 13.226667 34.986667 0 48.213334l-253.44 253.44c-13.226667 13.226667-34.986667 13.226667-48.213334 0-13.226667-13.226667-13.226667-34.56 0-48.213334z" fill="#4C4C4C" p-id="1495"></path><path d="M648.533333 85.333333c18.773333 0 34.133333 15.36 34.133334 34.133334v785.066666c0 18.773333-15.36 34.133333-34.133334 34.133334s-34.133333-15.36-34.133333-34.133334V119.466667c0-18.773333 15.36-34.133333 34.133333-34.133334z" fill="#4C4C4C" p-id="1496"></path></svg>